<?xml version="1.0" encoding="UTF-8" standalone="no"?>
<!-- Created with Inkscape (http://www.inkscape.org/) -->

<svg
   xmlns:dc="http://purl.org/dc/elements/1.1/"
   xmlns:cc="http://creativecommons.org/ns#"
   xmlns:rdf="http://www.w3.org/1999/02/22-rdf-syntax-ns#"
   xmlns:svg="http://www.w3.org/2000/svg"
   xmlns="http://www.w3.org/2000/svg"
   xmlns:xlink="http://www.w3.org/1999/xlink"
   xmlns:sodipodi="http://sodipodi.sourceforge.net/DTD/sodipodi-0.dtd"
   xmlns:inkscape="http://www.inkscape.org/namespaces/inkscape"
   width="256mm"
   height="256mm"
   viewBox="0 0 256 256"
   version="1.1"
   id="svg8"
   inkscape:version="0.92.5 (2060ec1f9f, 2020-04-08)"
   sodipodi:docname="series.svg">
  <defs
     id="defs2">
    <linearGradient
       inkscape:collect="always"
       id="linearGradient818">
      <stop
         style="stop-color:#009b97;stop-opacity:1"
         offset="0"
         id="stop814" />
      <stop
         style="stop-color:#283f87;stop-opacity:1"
         offset="1"
         id="stop816" />
    </linearGradient>
    <linearGradient
       inkscape:collect="always"
       xlink:href="#linearGradient818"
       id="linearGradient820"
       x1="128.26785"
       y1="40.488094"
       x2="133.0238"
       y2="297.5119"
       gradientUnits="userSpaceOnUse" />
  </defs>
  <sodipodi:namedview
     id="base"
     pagecolor="#ffffff"
     bordercolor="#666666"
     borderopacity="1.0"
     inkscape:pageopacity="0.0"
     inkscape:pageshadow="2"
     inkscape:zoom="0.49497475"
     inkscape:cx="178.87852"
     inkscape:cy="20.628959"
     inkscape:document-units="mm"
     inkscape:current-layer="layer1"
     showgrid="false"
     inkscape:pagecheckerboard="true"
     inkscape:window-width="2560"
     inkscape:window-height="1355"
     inkscape:window-x="0"
     inkscape:window-y="0"
     inkscape:window-maximized="1" />
  <metadata
     id="metadata5">
    <rdf:RDF>
      <cc:Work
         rdf:about="">
        <dc:format>image/svg+xml</dc:format>
        <dc:type
           rdf:resource="http://purl.org/dc/dcmitype/StillImage" />
        <dc:title />
      </cc:Work>
    </rdf:RDF>
  </metadata>
  <g
     inkscape:label="Calque 1"
     inkscape:groupmode="layer"
     id="layer1"
     transform="translate(0,-41)">
    <path
       d="M 257,39.997964 H -1 V 298.00204 H 257 V 39.997964"
       style="fill:url(#linearGradient820);fill-opacity:1;fill-rule:evenodd;stroke:none;stroke-width:0.40589017"
       id="path20"
       inkscape:connector-curvature="0" />
    <g
       id="g871"
       transform="matrix(0.26458333,0,0,0.26458333,90.33631,138.1058)">
      <path
         id="path854"
         d="m 405.14529,234.87383 h -14.76283 v -1.57606 c 0,-18.66331 -16.44661,-33.85701 -36.68032,-33.85701 H 196.32828 c -2.88567,-10.10268 -7.03559,-19.65544 -12.13795,-28.60158 0.94677,1.67244 2.02961,3.25984 2.90835,4.98331 h 179.08157 c 19.8652,0 36.01134,-17.82425 36.01134,-39.72473 v -263.07213 c 0,-21.90047 -16.14614,-39.72472 -36.01134,-39.72472 H -81.478338 c -19.865192,0 -36.011342,17.82425 -36.011342,39.72472 v 263.07213 c 0,21.90048 16.15182,39.72473 36.011342,39.72473 h 37.343623 c 0.87874,-1.72347 1.961575,-3.32221 2.919685,-4.99465 -5.108032,8.94614 -9.263622,18.4989 -12.149292,28.61292 h -15.635905 c -20.228032,0 -36.680313,15.1937 -36.680313,33.85701 v 1.57606 h -14.76284 c -11.39527,0 -20.67023,10.16504 -20.67023,22.64315 V 377.5869 c 0,12.48378 9.27496,22.64315 20.67023,22.64315 h 14.76284 2.9537 490.1556 2.9537 14.76283 c 11.39528,0 20.67024,-10.15937 20.67024,-22.64315 V 257.51698 c 0,-12.47811 -9.27496,-22.64315 -20.67024,-22.64315 z M -105.7259,376.60611 h -11.76378 l 0.0454,-118.10834 h 11.76379 z m 24.247562,-224.40756 c -6.712441,0 -12.387401,-7.37008 -12.387401,-16.10079 v -263.07213 c 0,-8.7307 5.67496,-16.10078 12.387401,-16.10078 H 366.18592 c 6.71811,0 12.39307,7.37008 12.39307,16.10078 v 263.07213 c 0,8.73071 -5.67496,16.10079 -12.39307,16.10079 H 171.48545 c 0.58394,0.69165 1.06583,1.46835 1.61575,2.17134 -6.15685,-7.76126 -13.16977,-14.78551 -20.90835,-20.95937 0.23244,0.18709 0.4989,0.3515 0.72567,0.53291 h 178.4126 c 19.53638,0 35.43307,-17.81858 35.43307,-39.724718 v -179.31402 c 0,-21.900472 -15.89669,-39.724732 -35.43307,-39.724732 H -46.623534 c -19.536378,0 -35.433071,17.82426 -35.433071,39.724732 v 179.30835 c 0,21.906138 15.896693,39.724718 35.433071,39.724718 h 36.6803201 c 0.23244,-0.18141 0.49322,-0.34582 0.72566,-0.53291 -7.7385801,6.17386 -14.7514901,13.19811 -20.9083401,20.95937 0.55559,-0.70299 1.03748,-1.47968 1.61575,-2.17134 H -81.478338 Z M 313.1497,17.178712 c -1.40598,0 -2.70425,0.18708 -3.91748,0.48189 C 303.55726,8.6634318 295.36514,1.7922518 284.08325,-1.7964082 v -7.93701 c 10.53921,-6.1455098 17.71653,-17.4500798 17.71653,-30.5064598 0,-19.53638 -15.89669,-35.43307 -35.43307,-35.43307 -19.53638,0 -35.43307,15.89669 -35.43307,35.43307 0,13.05638 7.17732,24.36095 17.71653,30.5064598 v 7.93701 c -2.36409,0.74834 -4.52409,1.70644999 -6.62173,2.73259999 L 177.78403,-4.4212882 V -17.165858 h 5.9074 c 3.25985,0 5.90174,-2.64189 5.90174,-5.9074 0,-3.26551 -2.64189,-5.9074 -5.90174,-5.9074 H 160.0675 c -3.26552,0 -5.90741,2.64189 -5.90741,5.9074 0,3.26551 2.64189,5.9074 5.90741,5.9074 h 5.9074 v 14.4170098 c -5.60693,2.31873999 -10.08,6.84283 -10.79433,13.9918102 -0.87874,8.7874 4.93228,14.17323 10.79433,17.03622 v 82.045978 h -58.06488 c 4.54677,1.32662 8.95181,2.94237 13.2548,4.73953 -4.62614,-1.92189 -9.35433,-3.67937 -14.24693,-5.06268 V 95.375242 c 21.15213,-12.28535 35.43307,-35.12126 35.43307,-61.28504 0,-39.0784202 -31.78772,-70.86614 -70.866144,-70.86614 -39.07843,0 -70.86613988,31.7877198 -70.86613988,70.86614 0,26.15811 14.28093988,48.99969 35.43306988,61.28504 v 14.626768 c -4.8926,1.38331 -9.62079,3.14079 -14.24693,5.06268 4.30299,-1.79716 8.70803,-3.41291 13.2548,-4.73953 h -81.68315 c -6.40063,0 -11.809134,-7.37007 -11.809134,-16.100778 v -179.31969 c 0,-8.73071 5.408504,-16.100792 11.809134,-16.100792 H 331.33112 c 6.4063,0 11.8148,7.370082 11.8148,16.100792 v 179.30835 c 0,8.730708 -5.4085,16.100788 -11.8148,16.100788 h -0.30614 l -0.0964,-74.057958 c -0.43087,-6.51968 -4.66583,-18.87874 -17.7789,-19.07716 z m 6.38929,37.07149 V 110.3195 h -12.1096 l 0.0227,-58.790558 v -15.02929 c 0.0113,-0.068 1.15087,-7.50614 5.76567,-7.50614 0.68032,0.0113 1.10552,0.39118 1.63843,0.62362 3.49795,1.49669 4.22362,6.7011 4.26898,7.04693 z m -141.75496,-35.12126 -3.85512,-0.33449 c -0.0794,-0.0227 -7.44945,-1.8085 -6.98456,-6.37795 0.50456,-5.0740102 7.72724,-5.2214202 8.11842,-5.2497602 l 2.72126,0.23244 50.24126,4.2066102 c -2.90834,3.32221 -5.32913,7.08662 -7.33606,11.17985 z m 38.68725,15.12 c -1.22457,4.48441 -2.16,9.16725 -2.6589,14.09386 l -0.59528,5.9074 V 110.3195 H 177.78403 V 30.915402 Z m 8.55496,55.06583 c 0,0 0,-33.0463 0,-35.06457 0,-2.01826 0.35149,-3.94582 0.60094,-5.9074 0.57827,-4.60913 1.42866,-8.98016 2.60221,-13.07905 1.19055,-4.1726 2.79496,-7.98237 4.88126,-11.41796 2.66456,-4.38236 6.14551,-8.10708 10.80567,-10.90771 1.47401,-0.89008 3.02173,-1.7178 4.72819,-2.40945 3.71338,-1.5137002 7.70456,-2.3981102 11.80913,-2.9196902 v -5.11937 -19.9445598 c -4.65449,-1.20756 -8.73071,-3.79276 -11.80913,-7.32473 -3.62268,-4.14992 -5.90741,-9.51874 -5.90741,-15.46016 0,-13.02236 10.59024,-23.62393 23.62394,-23.62393 13.0337,0 23.62394,10.60157 23.62394,23.62393 0,5.94142 -2.28473,11.30457 -5.9074,15.46016 -3.07843,3.53197 -7.15465,6.1115 -11.80914,7.32473 v 20.9366898 4.13291 c 0.36284,0.0454 0.72567,0.13606 1.09418,0.19843 3.70771,0.52724 7.33606,1.34929 10.71496,2.7212602 7.33606,2.98771 12.35338,7.80661 15.88535,13.83874 -2.5285,3.66803 -3.84378,8.01638 -4.26898,11.30456 l -0.0737,74.647558 H 225.02624 Z M 36.051746,134.78249 c 7.53448,-2.67591 15.42047,-4.59213 23.62393,-5.51622 V 79.659972 c -9.32031,-2.43213 -17.46141,-7.60252 -23.62393,-14.64945 -7.26804,-8.31685 -11.80914,-19.04315 -11.80914,-30.92599 0,-26.0560602 21.20315,-47.2422 47.24221,-47.2422 26.03905,0 47.242204,21.1861398 47.242204,47.2422 0,11.88284 -4.54677,22.60914 -11.80913,30.92599 -6.15685,7.04693 -14.303624,12.21732 -23.623944,14.64945 v 49.606298 c 8.1978,0.92409 16.08945,2.84031 23.623944,5.51622 30.08126,10.68094 53.74488,34.61102 64.47685,64.65827 H -28.425104 c 10.72629,-30.04725 34.3955901,-53.97733 64.47685,-64.65827 z M 366.75852,257.51698 V 376.60611 H -82.056605 V 257.51698 233.29777 c 0,-5.55024 5.975433,-10.23308 13.056378,-10.23308 H 353.70214 c 7.08095,0 13.05638,4.68284 13.05638,10.23308 z m 35.38772,119.08913 h -11.76378 l 0.0453,-118.10834 h 11.76378 z m -230.26961,-460.629918 -4.1726,4.17259 c -1.38331,1.38331 -13.54394,13.94079 -13.54394,27.79654 0,20.6589 12.39308,22.88126 17.71654,22.88126 5.32913,0 17.71654,-2.22803 17.71654,-22.88126 0,-13.85575 -12.15496,-26.41323 -13.53827,-27.79654 z m 0,43.04693 c -2.06362,0 -5.90173,0 -5.90173,-11.07213 0,-4.90394 3.00472,-10.36913 5.90173,-14.41134 2.89701,4.03654 5.9074,9.5074 5.9074,14.41134 0,11.07213 -3.84378,11.07213 -5.9074,11.07213 z"
         inkscape:connector-curvature="0"
         style="fill:#ffffff;fill-opacity:1;stroke-width:5.6692915" />
    </g>
  </g>
</svg>
